<svg xmlns="http://www.w3.org/2000/svg" width="32" height="32" viewBox="0 0 66 66" class="sidebar-icons">
    <path d="M33.548764 33.1972584C38.7686966 33.1972584 43.0156854 28.9502697 43.0156854 23.7303371 43.0156854 18.5104045 38.7686966 14.2634157 33.548764 14.2634157 28.3288315 14.2634157 24.0825843 18.5104045 24.0825843 23.7303371 24.0825843 28.9502697 28.3288315 33.1972584 33.548764 33.1972584zM33.548764 16.1173483C37.7460674 16.1173483 41.1617528 19.5322921 41.1617528 23.7303371 41.1617528 27.928382 37.7460674 31.3433258 33.548764 31.3433258 29.3507191 31.3433258 25.9357753 27.928382 25.9357753 23.7303371 25.9357753 19.5322921 29.3514607 16.1173483 33.548764 16.1173483zM52.4314382 40.9311236C50.7955281 40.9311236 49.2130112 41.2388764 47.7053933 41.8121124 44.621191 37.2862921 39.4264719 34.3088764 33.548764 34.3088764 27.5664944 34.3088764 22.2946517 37.3945618 19.2319551 42.0560899 17.5522921 41.3189663 15.7154157 40.930382 13.8688989 40.930382 6.51991011 40.930382.541348315 46.9096854.541348315 54.2594157L.541348315 64.4241573 65.7589888 64.4241573 65.7589888 54.2601573C65.7597303 46.910427 59.780427 40.9311236 52.4314382 40.9311236zM30.1197303 39.935191L29.1356629 43.1424944 26.2583596 38.0204494C26.9984494 37.6162921 27.7815506 37.2855506 28.5891236 37.0067191L30.1197303 39.935191zM31.8031011 40.7702022L34.7234157 40.7702022 36.2451236 45.4094831 33.5005618 50.9134382 30.3896629 45.3753708 31.8031011 40.7702022zM37.422 43.0490562L36.3919551 39.9099775 37.894382 36.8027865C38.660427 37.031191 39.3953258 37.3248539 40.1064944 37.665236L37.422 43.0490562zM36.0382247 36.3845393L34.8138876 38.9155281 31.68 38.9155281 30.4126517 36.4898427C31.4256404 36.2770112 32.4742247 36.162809 33.5495056 36.162809 34.3986067 36.1635506 35.2262022 36.2510562 36.0382247 36.3845393zM8.25741573 62.5709663L8.25741573 56.4833933 6.40348315 56.4833933 6.40348315 62.5709663 2.39602247 62.5709663 2.39602247 54.2601573C2.39602247 48.246 7.04865169 43.306382 12.9426742 42.8325169L12.9426742 52.6776404 14.7966067 52.6776404 14.7966067 42.8399326C16.0068539 42.9355955 17.1748315 43.2181348 18.2879326 43.6853258 17.1014157 46.0138652 16.4273258 48.6457079 16.4273258 51.4332809L16.4273258 62.5717079 8.25741573 62.5717079 8.25741573 62.5709663zM48.8177528 62.5709663L43.0231011 62.5709663 43.0231011 53.6275955 41.1691685 53.6275955 41.1691685 62.5709663 25.2105169 62.5709663 25.2105169 53.6275955 23.3565843 53.6275955 23.3565843 62.5709663 18.2805169 62.5709663 18.2805169 51.4325393C18.2805169 46.316427 20.8181798 41.7906067 24.6921573 39.0178652L33.5969663 54.8712135 41.7297978 38.5617978C45.9827191 41.2752135 48.8177528 46.0242472 48.8177528 51.4325393L48.8177528 62.5709663zM63.9057978 62.5709663L59.3873933 62.5709663 59.3873933 56.4833933 57.5334607 56.4833933 57.5334607 62.5709663 50.6716854 62.5709663 50.6716854 51.4325393C50.6716854 48.5396629 49.9479101 45.8136404 48.6761124 43.4213258 49.7447191 43.0505393 50.8593034 42.8488315 52.002809 42.8073034L52.002809 52.6776404 53.8567416 52.6776404 53.8567416 42.8836854C59.5119775 43.5889213 63.9057978 48.4165618 63.9057978 54.2601573L63.9057978 62.5709663z"/>
    <path d="M4.07865169,37.3878876 L7.80653933,37.3878876 C9.1628764,39.2774157 11.3720225,40.5143596 13.8696404,40.5143596 C17.9861124,40.5143596 21.3350562,37.1646742 21.3350562,33.0482022 C21.3350562,28.9317303 17.9861124,25.5827865 13.8696404,25.5827865 C9.75316854,25.5827865 6.40422472,28.9317303 6.40422472,33.0482022 C6.40422472,33.9202921 6.56217978,34.7545618 6.83878652,35.5339551 L4.07865169,35.5339551 C3.77164045,35.5339551 3.52247191,35.2840449 3.52247191,34.9777753 L3.52247191,4.07865169 C3.52247191,3.77164045 3.77164045,3.52247191 4.07865169,3.52247191 L60.6858876,3.52247191 C60.9921573,3.52247191 61.2420674,3.77164045 61.2420674,4.07865169 L61.2420674,34.9777753 C61.2420674,35.2840449 60.9921573,35.5339551 60.6858876,35.5339551 L59.4622921,35.5339551 C59.7388989,34.7545618 59.8968539,33.9202921 59.8968539,33.0482022 C59.8968539,28.9317303 56.5479101,25.5827865 52.4321798,25.5827865 C48.3149663,25.5827865 44.9660225,28.9317303 44.9660225,33.0482022 C44.9660225,37.1646742 48.3157079,40.5143596 52.4321798,40.5143596 C54.9290562,40.5143596 57.1389438,39.2774157 58.4945393,37.3878876 L60.6866292,37.3878876 C62.0155281,37.3878876 63.0967416,36.3066742 63.0967416,34.9777753 L63.0967416,4.07865169 C63.0967416,2.74975281 62.0155281,1.66853933 60.6866292,1.66853933 L4.07865169,1.66853933 C2.74975281,1.66853933 1.66853933,2.74975281 1.66853933,4.07865169 L1.66853933,34.9777753 C1.66853933,36.3066742 2.74975281,37.3878876 4.07865169,37.3878876 Z M13.8696404,27.4367191 C16.9642247,27.4367191 19.4811236,29.9543596 19.4811236,33.0482022 C19.4811236,36.1427865 16.9634831,38.660427 13.8696404,38.660427 C10.7757978,38.660427 8.2581573,36.1427865 8.2581573,33.0482022 C8.25741573,29.953618 10.7750562,27.4367191 13.8696404,27.4367191 Z M52.4314382,38.660427 C49.3368539,38.660427 46.8192135,36.1427865 46.8192135,33.0482022 C46.8192135,29.953618 49.3375955,27.4367191 52.4314382,27.4367191 C55.5252809,27.4367191 58.0421798,29.9543596 58.0421798,33.0482022 C58.0429213,36.1427865 55.5252809,38.660427 52.4314382,38.660427 Z"/>
    <path d="M57.5334607,25.460427 L59.3873933,25.460427 L59.3873933,5.12946067 L5.2525618,5.12946067 L5.2525618,26.3258427 L7.10649438,26.3258427 L7.10649438,11.6797753 L57.5334607,11.6797753 L57.5334607,25.460427 Z M7.10649438,9.8258427 L7.10649438,6.98339326 L57.5334607,6.98339326 L57.5334607,9.8258427 L7.10649438,9.8258427 Z"/>
    <rect width="1.717" height="1.854" x="8.806" y="7.323"/>
    <rect width="1.717" height="1.854" x="11.772" y="7.323"/>
    <rect width="1.717" height="1.854" x="14.739" y="7.323"/>
    <rect width="1.717" height="1.854" x="54.042" y="7.323"/>
    <polygon points="23.36 15.511 23.36 13.658 8.738 13.658 8.738 22.68 21.753 22.68 21.753 20.826 10.592 20.826 10.592 15.511"/>
    <polygon points="53.974 20.826 45.236 20.826 45.236 22.68 55.828 22.68 55.828 13.658 42.888 13.658 42.888 15.511 53.974 15.511"/>
</svg>
